<svg xmlns="http://www.w3.org/2000/svg" width="1600" height="1000" viewBox="0 0 1600 1000" role="img" aria-label="Abstract fashion background - women">
  <defs>
    <linearGradient id="bg" x1="0" y1="0" x2="1" y2="1">
      <stop offset="0" stop-color="#0f0f12"/>
      <stop offset="0.55" stop-color="#1b1716"/>
      <stop offset="1" stop-color="#8b7355"/>
    </linearGradient>
    <linearGradient id="sheen" x1="0" y1="1" x2="1" y2="0">
      <stop offset="0" stop-color="#ffffff" stop-opacity="0"/>
      <stop offset="0.5" stop-color="#ffffff" stop-opacity="0.08"/>
      <stop offset="1" stop-color="#ffffff" stop-opacity="0"/>
    </linearGradient>
    <filter id="soft" x="-20%" y="-20%" width="140%" height="140%">
      <feGaussianBlur stdDeviation="18"/>
    </filter>
  </defs>

  <rect width="1600" height="1000" fill="url(#bg)"/>

  <g opacity="0.9" filter="url(#soft)">
    <path d="M-80,780 C180,620 360,690 560,560 C760,430 860,250 1120,210 C1380,170 1550,270 1690,120 L1690,1100 L-80,1100 Z" fill="#c9a77a" opacity="0.25"/>
    <path d="M-60,920 C160,820 330,860 510,760 C690,660 820,520 980,480 C1140,440 1260,520 1400,430 C1540,340 1630,260 1710,210 L1710,1100 L-60,1100 Z" fill="#ffffff" opacity="0.08"/>
  </g>

  <g opacity="0.35">
    <circle cx="1240" cy="230" r="170" fill="#8b7355"/>
    <circle cx="1310" cy="260" r="120" fill="#0f0f12" opacity="0.6"/>
    <circle cx="1180" cy="290" r="90" fill="#ffffff" opacity="0.06"/>
  </g>

  <rect width="1600" height="1000" fill="url(#sheen)"/>

  <g opacity="0.18">
    <path d="M0,690 C240,570 410,600 620,500 C830,400 980,210 1200,170 C1420,130 1540,230 1600,140" fill="none" stroke="#ffffff" stroke-width="2"/>
    <path d="M0,740 C260,630 430,660 640,560 C850,460 1010,260 1230,220 C1450,180 1560,280 1600,200" fill="none" stroke="#ffffff" stroke-width="2"/>
  </g>
</svg>
